<svg width="14px" height="14px" viewBox="0 0 14 14">
    <g id="Page-1" stroke="none" stroke-width="1" fill="none" fill-rule="evenodd">
        <path style="fill:#237EB5;" d="M12.8789062,6.48046875 C14.3759766,4.99023438 14.3759766,2.59082031 12.8789062,1.12109375 C11.4091797,-0.375976562 9.00976562,-0.375976562 7.51953125,1.12109375 L5.34570312,3.28808594 C3.87597656,4.76464844 3.87597656,7.1640625 5.34570312,8.65429688 C5.6875,8.99609375 6.24121094,8.99609375 6.57617188,8.65429688 C6.93847656,8.3125 6.93847656,7.75878906 6.57617188,7.42382812 C5.78320312,6.61035156 5.78320312,5.33203125 6.57617188,4.51855469 L8.76367188,2.3515625 C9.56347656,1.55859375 10.8554688,1.55859375 11.6484375,2.3515625 C12.4414062,3.14453125 12.4414062,4.43652344 11.6484375,5.23632812 L10.6162109,6.2890625 C10.8759766,6.98632812 10.9716797,7.7109375 10.9033203,8.45605469 L12.8789062,6.48046875 Z M8.65429688,10.7119141 C10.1240234,9.23535156 10.1240234,6.8359375 8.65429688,5.34570312 C8.3125,5.00390625 7.74511719,5.00390625 7.40332031,5.34570312 C7.06152344,5.6875 7.06152344,6.25488281 7.40332031,6.59667969 C8.21679688,7.38964844 8.21679688,8.68847656 7.40332031,9.48144531 L5.23632812,11.6484375 C4.43652344,12.4414062 3.14453125,12.4414062 2.3515625,11.6484375 C1.55859375,10.8554688 1.55859375,9.56347656 2.3515625,8.76367188 L3.38378906,7.73144531 C3.12402344,7.03417969 3.02832031,6.2890625 3.09667969,5.54394531 L1.10058594,7.53320312 C-0.375976562,9.00976562 -0.375976562,11.4091797 1.10058594,12.8994141 C2.59082031,14.3759766 4.99023438,14.3759766 6.46679688,12.8994141 L8.65429688,10.7119141 Z" id="link" fill="#414B56"></path>
    </g>
</svg>
